<svg id="Layer_1" data-name="Layer 1" xmlns="http://www.w3.org/2000/svg" viewBox="7 0 359.02 111.86"><defs><style>.cls-1{fill:#fff;}</style></defs><path class="cls-1" d="M124.22,9.26a2.6,2.6,0,0,1,2-.75H170a2.77,2.77,0,0,1,2,.7,2.62,2.62,0,0,1,.75,2v3.08a2.82,2.82,0,0,1-.69,1.93,2.57,2.57,0,0,1-2,.79h-12.2q-4.29,0-4.83,1.63a3.62,3.62,0,0,0-.43,1.45,19.59,19.59,0,0,0-.11,2.35v25.6a2.81,2.81,0,0,1-.7,1.93,2.53,2.53,0,0,1-2,.79h-3.13a2.84,2.84,0,0,1-2-.67,2.58,2.58,0,0,1-.74-2V22.46q0-4.29-1.58-4.83a8.07,8.07,0,0,0-3.8-.6h-12.2a2.83,2.83,0,0,1-1.93-.7,2.57,2.57,0,0,1-.79-2V11.23A2.84,2.84,0,0,1,124.22,9.26Z"/><path class="cls-1" d="M189.28,9.26a2.61,2.61,0,0,1,2-.75h3.13a2.78,2.78,0,0,1,2,.7,2.62,2.62,0,0,1,.75,2v6.46q0,4.29,1.56,4.83a8.58,8.58,0,0,0,3.81.6h21.31c2.86,0,4.48-.54,4.84-1.63a8,8,0,0,0,.6-3.8V11.23A2.93,2.93,0,0,1,230,9.29a2.46,2.46,0,0,1,2-.78H235a2.8,2.8,0,0,1,2,.7,2.61,2.61,0,0,1,.74,2V48.06A2.76,2.76,0,0,1,237,50a2.54,2.54,0,0,1-2,.79h-3.08a2.72,2.72,0,0,1-1.93-.67,2.61,2.61,0,0,1-.73-2V37c0-2.82-.54-4.4-1.63-4.77a8,8,0,0,0-3.81-.61H202.53c-2.85,0-4.46.55-4.83,1.63a3.69,3.69,0,0,0-.42,1.43,18.71,18.71,0,0,0-.12,2.32V48.06a2.76,2.76,0,0,1-.7,1.93,2.54,2.54,0,0,1-2,.79h-3.13a2.76,2.76,0,0,1-2-.7,2.61,2.61,0,0,1-.76-2V11.23A2.84,2.84,0,0,1,189.28,9.26Z"/><path class="cls-1" d="M313.36,9.29a2.55,2.55,0,0,1,2-.78h3.5q3.09,0,4.71,3.8l13.65,24.22a3.09,3.09,0,0,0,2.35,1.63q1.64,0,3.62-4.11l13.41-23.73A4.27,4.27,0,0,1,360,8.51h3.75a2.8,2.8,0,0,1,1.93.7,2.53,2.53,0,0,1,.78,2V48.06a2.8,2.8,0,0,1-.69,1.93,2.54,2.54,0,0,1-2,.79h-3.21a2.65,2.65,0,0,1-1.89-.7,2.61,2.61,0,0,1-.76-2V39c0-4.55.6-7.11-1-7.18h-.65c-1.4,0-2.46,1.67-4.11,5l-7,12.26a4.06,4.06,0,0,1-3.45,1.69h-4.28c-2,0-3.44-1.11-4.4-3.32l-8-14.07c-1-1.68-1.63-1.59-2.36-1.57-1.46,0-1.33,1.61-1.33,4.1,0,.09-.06,1.11-.06,3.08v9.06a2.74,2.74,0,0,1-.7,2,2.59,2.59,0,0,1-2,.76h-3.14a2.78,2.78,0,0,1-1.93-.7,2.56,2.56,0,0,1-.79-2V11.23A2.85,2.85,0,0,1,313.36,9.29Z"/><path class="cls-1" d="M275.2,7.66a21.56,21.56,0,1,0,21.55,21.56A21.56,21.56,0,0,0,275.2,7.66Zm-.09,34.89a13.1,13.1,0,1,1,13.1-13.09A13.09,13.09,0,0,1,275.11,42.55Z"/><path class="cls-1" d="M6.45,15.5V26.64h0V48.86a2.07,2.07,0,0,0,2,2.08H13a2.05,2.05,0,0,0,2-1.78V36a3.77,3.77,0,0,1,3.77-3.77H31.53a2.05,2.05,0,0,0,2-2v-4.5a2.07,2.07,0,0,0-2.08-2H16.75A1.6,1.6,0,0,1,15,22c0-3,0-2,0-3s.93-1.5,1.86-1.52h32l.08,0H53.4a2,2,0,0,0,2.07-2V11A2.06,2.06,0,0,0,53.4,8.93H48.2V9H8.52a2.06,2.06,0,0,0-2.07,2Z"/><path class="cls-1" d="M90.3,27.2l13,22.39a2.67,2.67,0,0,0,2.32,1.35h3.92a2.69,2.69,0,0,0,2.33-4L90.44,9.85a2.68,2.68,0,0,0-4.65,0L64.4,46.91a2.68,2.68,0,0,0,2.32,4h3.75a2.68,2.68,0,0,0,2.32-1.35L85.8,27A2.67,2.67,0,0,1,90.3,27.2Z"/><path class="cls-1" d="M8.8,101.15c-1.37,0-2.06-.72-2.06-2.16V67.46a1.86,1.86,0,0,1,2.11-2.11H20.77q5.73,0,8.77,2.67t3,7.59A9.59,9.59,0,0,1,30.45,82a10.16,10.16,0,0,1-6.06,3.27,7.65,7.65,0,0,1,4,3.92l4.83,9a2.37,2.37,0,0,1,.2,2,1.53,1.53,0,0,1-1.61.93,2.39,2.39,0,0,1-1.41-.38,2.89,2.89,0,0,1-.95-1.18L23.94,89.44a6.41,6.41,0,0,0-2.67-2.9,9.26,9.26,0,0,0-4-.73H10.86V99C10.86,100.43,10.17,101.15,8.8,101.15Zm2.06-18.6h9.3q8.36,0,8.35-6.94t-8.35-6.84h-9.3Z"/><path class="cls-1" d="M128.92,100.8a2,2,0,0,1-2.26-2.26V67.61a2,2,0,0,1,2.26-2.26h9.71q8.6,0,13.27,4.55t4.68,13.15q0,8.6-4.68,13.17t-13.27,4.58Zm1.86-3.52h7.55q13.88,0,13.87-14.23T138.33,68.87h-7.55Z"/><path class="cls-1" d="M186.14,101.15c-1.37,0-2.06-.72-2.06-2.16V67.16c0-1.44.69-2.16,2.06-2.16s2.07.72,2.07,2.16V99Q188.21,101.15,186.14,101.15Z"/><path class="cls-1" d="M285.25,101.15c-1.31,0-2-.69-2-2.06v-32c0-1.41.6-2.11,1.81-2.11a2.06,2.06,0,0,1,1.15.27,4.31,4.31,0,0,1,.91,1l20.71,27.6V67a1.76,1.76,0,0,1,2-2q1.86,0,1.86,2V99.14c0,1.34-.56,2-1.66,2a2.15,2.15,0,0,1-1.21-.3,4.32,4.32,0,0,1-1-1l-20.71-27.7v26.9C287.16,100.46,286.52,101.15,285.25,101.15Z"/><path class="cls-1" d="M351.37,101.15c-1.38,0-2.06-.72-2.06-2.16V68.92H338c-1.27,0-1.91-.6-1.91-1.81s.64-1.76,1.91-1.76h26.8c1.28,0,1.91.59,1.91,1.76s-.63,1.81-1.91,1.81H353.48V99A1.89,1.89,0,0,1,351.37,101.15Z"/><path class="cls-1" d="M78.34,70.15h-.1L65.82,99.26c-.54,1.24-1.29,1.86-2.27,1.86a1.76,1.76,0,0,1-1.66-.8,2.18,2.18,0,0,1,.11-2L75.82,66.83A2.63,2.63,0,0,1,78.29,65a2.44,2.44,0,0,1,1.38.42,3.08,3.08,0,0,1,1,1.44L94.58,98.3a2.3,2.3,0,0,1,.15,2,1.64,1.64,0,0,1-1.61.8,2.16,2.16,0,0,1-1.46-.48,3.38,3.38,0,0,1-.9-1.38Z"/><path class="cls-1" d="M238.88,70.15h-.1L226.36,99.26c-.53,1.24-1.29,1.86-2.26,1.86a1.75,1.75,0,0,1-1.66-.8,2.18,2.18,0,0,1,.1-2l13.83-31.47A2.63,2.63,0,0,1,238.83,65a2.45,2.45,0,0,1,1.39.42,3.08,3.08,0,0,1,1,1.44L255.13,98.3a2.37,2.37,0,0,1,.15,2,1.64,1.64,0,0,1-1.61.8,2.14,2.14,0,0,1-1.46-.48,3.5,3.5,0,0,1-.91-1.38Z"/></svg>