<svg id="Layer_1" data-name="Layer 1" xmlns="http://www.w3.org/2000/svg" viewBox="0 0 243.43 273.78"><defs><style>.cls-1{fill:#fff;stroke:#fff;stroke-linecap:round;stroke-linejoin:round;stroke-width:2.83px;}</style></defs><path class="cls-1" d="M179.36,170.14V103.22l-58-33.46-58,33.46v66.92l58,33.45ZM70.65,166v-58.6l50.76-29.31,50.75,29.31V166l-50.75,29.3Z"/><polygon class="cls-1" points="96.41 34.68 121.66 20.1 146.92 34.68 150.52 28.44 121.66 11.78 92.81 28.44 96.41 34.68"/><polygon class="cls-1" points="146.05 239.47 120.8 254.05 95.55 239.47 91.95 245.71 120.8 262.36 149.65 245.7 146.05 239.47"/><polygon class="cls-1" points="20.14 107.37 20.14 78.21 45.4 63.63 41.8 57.4 12.94 74.06 12.94 107.37 20.14 107.37"/><polygon class="cls-1" points="222.32 166.78 222.32 195.94 197.07 210.51 200.67 216.75 229.52 200.09 229.52 166.78 222.32 166.78"/><polygon class="cls-1" points="44.97 209.77 19.71 195.19 19.71 166.03 12.51 166.03 12.51 199.34 41.37 216 44.97 209.77"/><polygon class="cls-1" points="197.5 64.38 222.75 78.96 222.75 108.12 229.95 108.12 229.95 74.8 201.1 58.15 197.5 64.38"/></svg>