<?xml version="1.0" encoding="UTF-8"?>
<svg width="18px" height="7px" viewBox="0 0 18 7" version="1.1" xmlns="http://www.w3.org/2000/svg" xmlns:xlink="http://www.w3.org/1999/xlink">
    <!-- Generator: Sketch 60 (88103) - https://sketch.com -->
    <title>Group 5</title>
    <desc>Created with Sketch.</desc>
    <g id="Page-1" stroke="none" stroke-width="1" fill="none" fill-rule="evenodd" stroke-linecap="round">
        <g id="0027-Science-Page-(Publications)-Copy" transform="translate(-353.000000, -2412.000000)" stroke="#231F20">
            <g id="Group-4" transform="translate(354.000000, 2391.000000)">
                <g id="Group-5" transform="translate(0.000000, 21.000000)">
                    <path d="M9.876,2.69853 C9.956,2.94953 10,3.21953 10,3.50053 C10,4.88153 8.944,6.00053 7.641,6.00053 L2.358,6.00053 C1.056,6.00053 0,4.88153 0,3.50053 C0,2.11953 1.056,1.00053 2.358,1.00053 L4.079,1.00053" id="Stroke-1"></path>
                    <path d="M5.6513,3.88213 C5.5533,3.60813 5.5003,3.31113 5.5003,3.00013 C5.5003,1.61913 6.5563,0.50013 7.8583,0.50013 L13.1413,0.50013 C14.4443,0.50013 15.5003,1.61913 15.5003,3.00013 C15.5003,4.38113 14.4443,5.50013 13.1413,5.50013 L11.2463,5.50013" id="Stroke-3"></path>
                </g>
            </g>
        </g>
    </g>
</svg>