<svg xmlns="http://www.w3.org/2000/svg" width="19" viewBox="0 0 19 19" role="img" class="blog-post-homepage-description-fill blog-post-homepage-link-hashtag-hover-fill"><path d="M2.44398805,5.99973295 C1.62345525,5.9690612 0.980075653,5.28418875 1.00047182,4.46312144 C1.02086799,3.64205413 1.69745853,2.98998831 2.51850166,3.0001164 C3.33954478,3.01024449 3.99985313,3.67880182 4,4.50012255 C3.98424812,5.34399206 3.28763905,6.0153508 2.44398805,5.99973295 L2.44398805,5.99973295 Z M2.44398805,10.9997329 C1.62345525,10.9690612 0.980075653,10.2841888 1.00047182,9.46312144 C1.02086799,8.64205413 1.69745853,7.98998831 2.51850166,8.0001164 C3.33954478,8.01024449 3.99985313,8.67880182 4,9.50012255 C3.98424812,10.3439921 3.28763905,11.0153508 2.44398805,10.9997329 L2.44398805,10.9997329 Z M2.44398805,15.9997329 C1.62345525,15.9690612 0.980075653,15.2841888 1.00047182,14.4631214 C1.02086799,13.6420541 1.69745853,12.9899883 2.51850166,13.0001164 C3.33954478,13.0102445 3.99985313,13.6788018 4,14.5001225 C3.98424812,15.3439921 3.28763905,16.0153508 2.44398805,15.9997329 L2.44398805,15.9997329 Z"></path></svg>