<?xml version="1.0" encoding="UTF-8"?>
<svg width="14px" height="15px" viewBox="0 0 14 15" version="1.1" xmlns="http://www.w3.org/2000/svg" xmlns:xlink="http://www.w3.org/1999/xlink">
    <!-- Generator: Sketch 60.1 (88133) - https://sketch.com -->
    <title>Combined Shape</title>
    <desc>Created with Sketch.</desc>
    <g id="Page-1" stroke="none" stroke-width="1" fill="none" fill-rule="evenodd">
        <g id="15" transform="translate(-155.000000, -8374.000000)">
            <g id="DESIGN" transform="translate(-221.000000, 0.000000)">
                <g id="Group" transform="translate(343.000000, 8351.000000)">
                    <path d="M33.8890873,37.0104076 C33.6938252,37.2056698 33.3772427,37.2056698 33.1819805,37.0104076 C33.0084142,36.8368413 32.989129,36.5674169 33.1241251,36.3725487 L33.1819805,36.3033009 L37.0873729,32.3988997 C35.2833196,30.2380658 35.3957357,27.0184779 37.4246212,24.9895924 C39.5725169,22.8416967 43.0549001,22.8416967 45.2027958,24.9895924 C47.3506724,27.1374689 47.3506821,30.6198807 45.2027958,32.767767 C43.1742366,34.7963262 39.9553135,34.9090153 37.7944998,33.1058587 L33.8890873,37.0104076 Z M44.495689,25.6966991 C42.7383176,23.9393278 39.8890994,23.9393278 38.131728,25.6966991 C36.3743566,27.4540705 36.3743566,30.3032888 38.131728,32.0606602 C39.8890811,33.8180133 42.7383279,33.8180213 44.495689,32.0606602 C46.2530501,30.3032991 46.2530422,27.4540523 44.495689,25.6966991 Z" id="Combined-Shape" fill="#231F20" fill-rule="nonzero"></path>
                </g>
            </g>
        </g>
    </g>
</svg>